<svg xmlns="http://www.w3.org/2000/svg" xmlns:xlink="http://www.w3.org/1999/xlink" width="500" zoomAndPan="magnify" viewBox="0 0 375 374.999991" height="500" preserveAspectRatio="xMidYMid meet" version="1.0"><defs><g/><clipPath id="7c0cc1c969"><path d="M 279 189 L 364 189 L 364 276 L 279 276 Z M 279 189 " clip-rule="nonzero"/></clipPath><clipPath id="a05586ab27"><path d="M 286.222656 180.078125 L 370.351562 199.09375 L 352.164062 279.5625 L 268.035156 260.546875 Z M 286.222656 180.078125 " clip-rule="nonzero"/></clipPath><clipPath id="6ad5b514aa"><path d="M 286.222656 180.078125 L 370.351562 199.09375 L 352.164062 279.5625 L 268.035156 260.546875 Z M 286.222656 180.078125 " clip-rule="nonzero"/></clipPath><clipPath id="d2074e0af1"><path d="M 8 99 L 50 99 L 50 142 L 8 142 Z M 8 99 " clip-rule="nonzero"/></clipPath><clipPath id="e0408ef29b"><path d="M 4.402344 105.199219 L 44.820312 93.78125 L 55.625 132.03125 L 15.207031 143.449219 Z M 4.402344 105.199219 " clip-rule="nonzero"/></clipPath><clipPath id="675d47f1ed"><path d="M 4.402344 105.199219 L 44.820312 93.78125 L 55.625 132.03125 L 15.207031 143.449219 Z M 4.402344 105.199219 " clip-rule="nonzero"/></clipPath></defs><g fill="#ffffff" fill-opacity="1"><g transform="translate(24.540951, 230.24938)"><g><path d="M 56.375 -130.078125 C 63.289062 -130.078125 70.050781 -129.070312 76.65625 -127.0625 C 83.257812 -125.050781 88.160156 -123.0625 91.359375 -121.09375 L 96.015625 -118 L 84.25 -94.78125 C 83.3125 -95.394531 82.015625 -96.191406 80.359375 -97.171875 C 78.710938 -98.148438 75.617188 -99.460938 71.078125 -101.109375 C 66.535156 -102.765625 62.300781 -103.59375 58.375 -103.59375 C 53.53125 -103.59375 49.789062 -102.5625 47.15625 -100.5 C 44.519531 -98.4375 43.203125 -95.648438 43.203125 -92.140625 C 43.203125 -90.390625 43.820312 -88.765625 45.0625 -87.265625 C 46.300781 -85.765625 48.414062 -84.160156 51.40625 -82.453125 C 54.40625 -80.753906 57.039062 -79.390625 59.3125 -78.359375 C 61.582031 -77.328125 65.09375 -75.78125 69.84375 -73.71875 C 78.101562 -70.207031 85.148438 -65.429688 90.984375 -59.390625 C 96.816406 -53.347656 99.734375 -46.507812 99.734375 -38.875 C 99.734375 -31.539062 98.414062 -25.132812 95.78125 -19.65625 C 93.144531 -14.1875 89.53125 -9.90625 84.9375 -6.8125 C 80.34375 -3.71875 75.257812 -1.421875 69.6875 0.078125 C 64.113281 1.578125 58.070312 2.328125 51.5625 2.328125 C 45.988281 2.328125 40.515625 1.757812 35.140625 0.625 C 29.773438 -0.507812 25.285156 -1.925781 21.671875 -3.625 C 18.066406 -5.332031 14.816406 -7.015625 11.921875 -8.671875 C 9.035156 -10.328125 6.921875 -11.722656 5.578125 -12.859375 L 3.5625 -14.5625 L 18.125 -39.03125 C 19.363281 -37.988281 21.066406 -36.664062 23.234375 -35.0625 C 25.398438 -33.46875 29.242188 -31.328125 34.765625 -28.640625 C 40.285156 -25.960938 45.164062 -24.625 49.40625 -24.625 C 61.6875 -24.625 67.828125 -28.804688 67.828125 -37.171875 C 67.828125 -38.921875 67.390625 -40.546875 66.515625 -42.046875 C 65.640625 -43.546875 64.085938 -45.039062 61.859375 -46.53125 C 59.640625 -48.03125 57.675781 -49.21875 55.96875 -50.09375 C 54.269531 -50.96875 51.484375 -52.304688 47.609375 -54.109375 C 43.742188 -55.921875 40.882812 -57.296875 39.03125 -58.234375 C 31.28125 -62.046875 25.289062 -66.816406 21.0625 -72.546875 C 16.832031 -78.273438 14.71875 -84.445312 14.71875 -91.0625 C 14.71875 -102.519531 18.945312 -111.882812 27.40625 -119.15625 C 35.875 -126.4375 45.53125 -130.078125 56.375 -130.078125 Z M 56.375 -130.078125 "/></g></g></g><g fill="#ffffff" fill-opacity="1"><g transform="translate(113.258058, 230.24938)"><g><path d="M 86.25 -52.5 L 101.125 -52.5 L 101.125 -26.953125 L 86.25 -26.953125 L 86.25 0 L 59 0 L 59 -26.953125 L -3.875 -26.953125 L -3.875 -35.625 L 57.453125 -127.765625 L 86.25 -127.765625 Z M 59 -88.890625 L 58.6875 -88.890625 L 35.921875 -52.5 L 59 -52.5 Z M 59 -88.890625 "/></g></g></g><g fill="#ffffff" fill-opacity="1"><g transform="translate(201.046147, 230.24938)"><g><path d="M 125.59375 0 L 85.484375 0 L 38.40625 -54.203125 L 38.40625 0 L 9.296875 0 L 9.296875 -127.765625 L 38.40625 -127.765625 L 38.40625 -75.578125 L 82.234375 -127.765625 L 117.53125 -127.765625 L 66.125 -67.203125 Z M 125.59375 0 "/></g></g></g><g clip-path="url(#7c0cc1c969)"><g clip-path="url(#a05586ab27)"><g clip-path="url(#6ad5b514aa)"><path fill="#dedede" d="M 313.847656 254.027344 L 336.363281 275.652344 L 336.167969 244.441406 L 363.683594 229.710938 L 333.945312 220.238281 L 328.40625 189.613281 L 310.238281 214.878906 L 279.316406 210.640625 L 297.824219 235.773438 L 284.222656 263.871094 Z M 313.847656 254.027344 " fill-opacity="1" fill-rule="nonzero"/></g></g></g><g clip-path="url(#d2074e0af1)"><g clip-path="url(#e0408ef29b)"><g clip-path="url(#675d47f1ed)"><path fill="#dedede" d="M 33.402344 130.414062 L 48.054688 134.433594 L 40.71875 121.128906 L 49.066406 108.433594 L 34.144531 111.292969 L 24.660156 99.476562 L 22.761719 114.507812 L 8.546875 119.878906 L 22.304688 126.332031 L 23.015625 141.507812 Z M 33.402344 130.414062 " fill-opacity="1" fill-rule="nonzero"/></g></g></g></svg>