<?xml version="1.0" encoding="utf-8"?>
<!-- Generator: Adobe Illustrator 25.4.1, SVG Export Plug-In . SVG Version: 6.00 Build 0)  -->
<svg version="1.1" id="Layer_1" xmlns="http://www.w3.org/2000/svg" xmlns:xlink="http://www.w3.org/1999/xlink" x="0px" y="0px"
	 viewBox="0 0 1000 500" style="enable-background:new 0 0 1000 500;" xml:space="preserve">
<style type="text/css">
	.st0{fill:#FFFFFF;}
</style>
<g>
	<g transform="translate(26.653414, 172.342806)">
		<g>
			<path class="st0" d="M67.1-76.9c7.1,0,14.1,1,20.9,3.1c6.8,2.1,11.9,4.1,15.2,6.2l4.8,3.2l-12.1,24c-1-0.6-2.3-1.5-4-2.5
				c-1.7-1-4.9-2.4-9.6-4.1c-4.7-1.7-9.1-2.6-13.1-2.6c-5,0-8.9,1.1-11.6,3.2c-2.7,2.1-4.1,5-4.1,8.6c0,1.8,0.6,3.5,1.9,5
				c1.3,1.5,3.5,3.2,6.6,5c3.1,1.8,5.8,3.2,8.2,4.2c2.3,1.1,6,2.7,10.9,4.8c8.5,3.6,15.8,8.6,21.8,14.8c6,6.2,9,13.3,9,21.2
				c0,7.6-1.4,14.2-4.1,19.8c-2.7,5.7-6.5,10.1-11.2,13.3c-4.7,3.2-10,5.6-15.8,7.1c-5.8,1.5-12,2.3-18.7,2.3
				c-5.8,0-11.4-0.6-17-1.8c-5.5-1.2-10.2-2.6-13.9-4.4c-3.7-1.8-7.1-3.5-10.1-5.2c-3-1.7-5.2-3.1-6.6-4.3l-2.1-1.8l15-25.3
				c1.3,1.1,3,2.4,5.3,4.1c2.2,1.7,6.2,3.9,11.9,6.6c5.7,2.8,10.8,4.1,15.1,4.1c12.7,0,19-4.3,19-13c0-1.8-0.5-3.5-1.4-5
				c-0.9-1.6-2.5-3.1-4.8-4.6c-2.3-1.6-4.3-2.8-6.1-3.7c-1.8-0.9-4.6-2.3-8.6-4.1c-4-1.9-7-3.3-8.9-4.2c-8-3.9-14.2-8.9-18.6-14.8
				s-6.6-12.3-6.6-19.1c0-11.8,4.4-21.5,13.1-29C45.9-73.2,55.9-76.9,67.1-76.9z"/>
		</g>
	</g>
</g>
<g>
	<g transform="translate(121.656762, 172.342806)">
		<g>
			<path class="st0" d="M151.4,57.4l-21.1-74.1l-21.1,74.1H75.7l-37.6-132h33.4L94.1,16h0.8l24-90.5h22.7l24,90.5h0.8L189-74.5h33.3
				l-37.6,132H151.4z"/>
		</g>
	</g>
</g>
<g>
	<g transform="translate(270.518489, 172.342806)">
		<g>
			<path class="st0" d="M129.8-74.5v132H99.8v-132H129.8z"/>
		</g>
	</g>
</g>
<g>
	<g transform="translate(321.85935, 172.342806)">
		<g>
			<path class="st0" d="M193.2-74.5v26.4H147v26.2h42.7V4.5H147v52.9h-30.1v-132H193.2z"/>
		</g>
	</g>
</g>
<g>
	<g transform="translate(404.267753, 172.342806)">
		<g>
			<path class="st0" d="M136-48.1v-26.4h92.8v26.4h-31.4V57.4h-30.1V-48.1H136z"/>
		</g>
	</g>
</g>
<g>
	<g transform="translate(490.154754, 172.342806)">
		<g>
			<path class="st0" d="M203.1-74.5v132H173v-132H203.1z"/>
		</g>
	</g>
</g>
<g>
	<g transform="translate(541.495615, 172.342806)">
		<g>
			<path class="st0" d="M265.6-74.5v26.4h-45.4v26.2h43.5V4.5h-43.5v26.5h45.4v26.4h-75.5v-132H265.6z"/>
		</g>
	</g>
</g>
<g>
	<g transform="translate(625.463372, 172.342806)">
		<g>
			<path class="st0" d="M266.7-76.9c7.1,0,14.1,1,20.9,3.1c6.8,2.1,11.9,4.1,15.2,6.2l4.8,3.2l-12.1,24c-1-0.6-2.3-1.5-4-2.5
				c-1.7-1-4.9-2.4-9.6-4.1c-4.7-1.7-9.1-2.6-13.1-2.6c-5,0-8.9,1.1-11.6,3.2c-2.7,2.1-4.1,5-4.1,8.6c0,1.8,0.6,3.5,1.9,5
				c1.3,1.5,3.5,3.2,6.6,5c3.1,1.8,5.8,3.2,8.2,4.2c2.3,1.1,6,2.7,10.9,4.8c8.5,3.6,15.8,8.6,21.8,14.8c6,6.2,9,13.3,9,21.2
				c0,7.6-1.4,14.2-4.1,19.8c-2.7,5.7-6.5,10.1-11.2,13.3c-4.7,3.2-10,5.6-15.8,7.1c-5.8,1.5-12,2.3-18.7,2.3
				c-5.8,0-11.4-0.6-17-1.8c-5.5-1.2-10.2-2.6-13.9-4.4c-3.7-1.8-7.1-3.5-10.1-5.2c-3-1.7-5.2-3.1-6.6-4.3l-2.1-1.8l15-25.3
				c1.3,1.1,3,2.4,5.3,4.1c2.2,1.7,6.2,3.9,11.9,6.6c5.7,2.8,10.8,4.1,15.1,4.1c12.7,0,19-4.3,19-13c0-1.8-0.5-3.5-1.4-5
				c-0.9-1.6-2.5-3.1-4.8-4.6c-2.3-1.6-4.3-2.8-6.1-3.7c-1.8-0.9-4.6-2.3-8.6-4.1c-4-1.9-7-3.3-8.9-4.2c-8-3.9-14.2-8.9-18.6-14.8
				s-6.6-12.3-6.6-19.1c0-11.8,4.4-21.5,13.1-29C245.6-73.2,255.5-76.9,266.7-76.9z"/>
		</g>
	</g>
</g>
<g>
	<g transform="translate(148.966859, 281.988814)">
		<g>
			<path class="st0" d="M165.5,94h-37L85.1,44v50H58.2V-23.9h26.9v48.1l40.4-48.1h32.6L110.7,32L165.5,94z"/>
		</g>
	</g>
</g>
<g>
	<g transform="translate(243.998884, 281.988814)">
		<g>
			<path class="st0" d="M149.8-23.9L197.3,94h-28.9l-8.7-23.6h-44.9L106.2,94H77.3l47.6-117.9H149.8z M150.6,46.9l-13.1-34.3h-0.3
				L124,46.9H150.6z"/>
		</g>
	</g>
</g>
<g>
	<g transform="translate(338.709503, 281.988814)">
		<g>
			<path class="st0" d="M218.9,94l-5.6-69.9h-0.7l-24.1,69.1h-16l-24.1-69.1h-0.7L142,94h-26.9l10.6-117.9h28.6l26.1,68l26.1-68
				h28.6L245.8,94H218.9z"/>
		</g>
	</g>
</g>
<g>
	<g transform="translate(450.77629, 281.988814)">
		<g>
			<path class="st0" d="M218.7-23.9L266.3,94h-28.9l-8.7-23.6h-44.9L175.1,94h-28.9l47.6-117.9H218.7z M219.6,46.9l-13.1-34.3h-0.3
				L193,46.9H219.6z"/>
		</g>
	</g>
</g>
<g>
	<g transform="translate(545.486916, 281.988814)">
		<g>
			<path class="st0" d="M217.3-23.9v94.3h40.6V94h-67.4V-23.9H217.3z"/>
		</g>
	</g>
</g>
<g>
	<g transform="translate(616.734532, 281.988814)">
		<g>
			<path class="st0" d="M274-23.9L321.6,94h-28.9L284,70.4h-44.9L230.4,94h-28.9l47.6-117.9H274z M274.9,46.9l-13.1-34.3h-0.3
				l-13.1,34.3H274.9z"/>
		</g>
	</g>
</g>
<g>
	<g transform="translate(53.541366, 258.914586)">
		<g>
			<path class="st0" d="M-6.4,104.8c0-0.4,0-0.6,0.1-0.7c0-0.1,0.2-0.4,0.5-0.8c0.2-0.3,0.6-0.6,1-1c0.2-0.2,0.4-0.4,0.7-0.6
				c0.1,0,0.3,0,0.6-0.1c0.3,0,0.6,0,0.8,0c1,0,1.8,0.2,2.4,0.8c0.6,0.5,1.2,1.1,1.8,1.7c0.6,0.6,1.2,1.2,1.9,1.7s1.6,0.8,2.8,0.8
				h1.4c0.1,0,0.2-0.1,0.5-0.3c0.2-0.1,0.4-0.3,0.6-0.4c0.2-0.1,0.4-0.3,0.6-0.4c0.2-0.1,0.3-0.2,0.4-0.3c0-0.1,0.1-0.1,0.3-0.2
				c0.2,0,0.3-0.1,0.4-0.1c0.6-0.3,1-0.6,1.4-0.9c0.3-0.3,0.7-0.7,0.9-1.1c0.3-0.4,0.5-0.8,0.8-1.2c0.2-0.4,0.5-0.8,0.8-1.3
				c0.1,0,0.2-0.1,0.3-0.3c0.1-0.2,0.3-0.3,0.4-0.5c0.1-0.2,0.3-0.4,0.4-0.5c0.1-0.2,0.2-0.3,0.3-0.4c0.1,0,0.1-0.1,0.2-0.3
				c0-0.1,0.1-0.2,0.1-0.3c0.7-1.6,1.3-3.2,2-4.6c0.7-1.5,1.4-3,2.1-4.5c0.1-0.1,0.2-0.4,0.3-0.7c0.1-0.3,0.3-0.7,0.4-1.1
				c0.2-0.4,0.3-0.7,0.4-1.1c0.1-0.4,0.2-0.6,0.2-0.8c0,0,0-0.1,0-0.3c0-0.2,0.1-0.4,0.1-0.6c0-0.2,0.1-0.4,0.1-0.5
				c0.1-0.2,0.1-0.3,0.1-0.3c0-0.1,0.1-0.3,0.2-0.6c0.1-0.3,0.3-0.7,0.4-1c0.2-0.4,0.3-0.7,0.4-1c0.2-0.3,0.2-0.5,0.3-0.6
				c0-0.1,0.1-0.2,0.2-0.5c0.1-0.3,0.2-0.4,0.2-0.5c0-0.1,0-0.2,0.1-0.4l0.2-0.3l0.6-0.6c0.2-0.3,0.4-0.7,0.5-1
				c0.1-0.4,0.2-0.7,0.4-1c0.1-0.3,0.3-0.7,0.5-1c0.2-0.3,0.4-0.7,0.8-1c0-0.2,0.1-0.5,0.2-1c0.1-0.5,0.3-1,0.4-1.5
				c0.2-0.5,0.3-1,0.4-1.5c0.1-0.5,0.2-0.8,0.2-1c0.1-0.1,0.2-0.3,0.3-0.6c0.2-0.3,0.3-0.7,0.4-1.1c0.2-0.4,0.3-0.7,0.4-1.1
				c0.1-0.3,0.2-0.5,0.3-0.6c0,0,0-0.1,0-0.2c0-0.1,0.1-0.3,0.1-0.4c0-0.2,0.1-0.3,0.1-0.4c0-0.2,0-0.2,0-0.3
				c0.3-0.8,0.6-1.7,1.1-2.5c0.4-0.8,0.8-1.7,1-2.6c0.2-0.6,0.3-1.1,0.3-1.6c0-0.5,0.2-1,0.4-1.5c0,0,0.1-0.1,0.2-0.2
				c0.1-0.2,0.2-0.3,0.3-0.5c0.1-0.2,0.2-0.4,0.3-0.6c0.1-0.2,0.2-0.3,0.2-0.4c0,0,0.1-0.1,0.1-0.1c0.1-0.1,0.1-0.1,0.1-0.2
				c0-0.1,0.1-0.2,0.1-0.2v-2.3c-0.3-0.4-0.8-0.7-1.2-0.8c-0.5-0.1-1-0.1-1.6-0.1h-1.4c-0.2,0-0.4,0-0.6,0c-0.2,0-0.4,0-0.5-0.1
				c-0.1,0-0.2,0-0.3-0.1c-0.1-0.1-0.3-0.2-0.4-0.2c-0.1-0.1-0.3-0.2-0.4-0.2c-0.1-0.1-0.2-0.1-0.2-0.1c-0.6-0.2-1.1-0.4-1.5-0.6
				c-0.4-0.2-0.6-0.6-0.6-1.4c0-0.1,0-0.1,0-0.2c0-0.1,0-0.2,0-0.2c0-0.1,0-0.2,0.1-0.3c0-0.1,0.1-0.2,0.2-0.4
				c0.2-0.2,0.3-0.3,0.5-0.5c0.2-0.2,0.3-0.4,0.5-0.5c0.2-0.2,0.3-0.2,0.4-0.3c0.2,0,0.5,0,1,0c0.5,0,1-0.1,1.5-0.1
				c0.5,0,1-0.1,1.5-0.1c0.5,0,0.8-0.1,1-0.1c0.6-0.1,1.3-0.2,1.8-0.4c0.6-0.2,1.1-0.6,1.5-1.2c0.1-0.1,0.2-0.4,0.5-0.7
				c0.2-0.4,0.5-0.7,0.7-1.1c0.2-0.4,0.5-0.8,0.7-1.1c0.2-0.4,0.4-0.6,0.5-0.8c0.4-0.8,0.8-1.7,1-2.5c0.3-0.8,0.6-1.7,0.9-2.5
				c0.1-0.1,0.1-0.2,0.2-0.4c0.1-0.2,0.2-0.3,0.2-0.3c0,0,0-0.1,0.1-0.2c0.1-0.2,0.2-0.3,0.3-0.4c0.1-0.2,0.2-0.3,0.3-0.4
				c0.1-0.2,0.2-0.3,0.2-0.3c0,0,0.1-0.2,0.2-0.4c0.1-0.3,0.2-0.5,0.3-0.8c0.1-0.3,0.2-0.6,0.3-0.8c0.1-0.3,0.2-0.4,0.2-0.5
				c0-0.1,0-0.2,0.1-0.4c0.1-0.2,0.2-0.3,0.2-0.4c0.1-0.2,0.3-0.4,0.5-0.7c0.2-0.3,0.4-0.6,0.6-1c0.2-0.3,0.4-0.6,0.5-0.9
				c0.2-0.2,0.3-0.4,0.3-0.4c0.6-0.6,1.2-1.2,1.9-1.6c0.7-0.5,1.4-0.9,2.1-1.3c0.7-0.4,1.5-0.8,2.2-1.2c0.8-0.4,1.5-0.8,2.2-1.3
				c0.1,0,0.2-0.1,0.4-0.2c0.2-0.2,0.3-0.3,0.4-0.4c0-0.1,0.1-0.1,0.2-0.2c0.2-0.1,0.3-0.1,0.3-0.1c0.2,0,0.4,0,0.8,0
				c0.4,0,0.8,0,1.2,0c0.4,0,0.8,0,1.2,0c0.4,0,0.6,0,0.8,0c1.3,0,2.6,0,3.8,0.1c1.2,0.1,2.3,0.3,3.4,0.6c1.1,0.3,2.1,0.7,3.1,1.3
				c1,0.6,1.9,1.4,2.9,2.4c0,0.1,0.1,0.2,0.2,0.4c0.1,0.2,0.2,0.3,0.4,0.5c0.1,0.2,0.2,0.4,0.3,0.6c0.1,0.2,0.1,0.3,0.1,0.5
				c0,1.1-0.2,2.1-0.7,2.9c-0.5,0.8-1.3,1.3-2.6,1.3c-0.4,0-0.7-0.1-0.9-0.2c-0.2-0.1-0.3-0.3-0.4-0.6c-0.1-0.2-0.2-0.5-0.3-0.8
				c-0.1-0.3-0.2-0.5-0.4-0.8c-0.8-0.9-1.5-1.6-2.2-2.2c-0.7-0.6-1.6-0.9-2.7-0.9c-0.8,0-1.6,0.2-2.2,0.5c-0.6,0.3-1.3,0.6-2.1,0.9
				c-0.9,0.3-1.7,0.6-2.5,1c-0.8,0.3-1.7,0.8-2.5,1.4c-0.1,0.1-0.2,0.2-0.3,0.3c-0.1,0.1-0.3,0.2-0.4,0.3c-0.1,0.2-0.3,0.5-0.6,0.9
				c-0.2,0.4-0.5,0.8-0.8,1.2c-0.3,0.4-0.5,0.8-0.8,1.2c-0.2,0.4-0.4,0.6-0.5,0.8c-0.5,0.8-0.8,1.5-1,2.2c-0.2,0.6-0.4,1.3-0.7,2.1
				c-0.2,0.9-0.6,1.8-0.9,2.6c-0.4,0.8-0.7,1.6-1.1,2.5V43c0,0.1,0.1,0.3,0.3,0.7c0.2,0.3,0.3,0.5,0.4,0.6c0.1,0.2,0.2,0.3,0.3,0.5
				c0.2,0.2,0.3,0.3,0.3,0.3h7.1c0.2,0,0.5,0.1,0.7,0.4c0.2,0.2,0.5,0.6,0.7,0.9c0.2,0.3,0.4,0.7,0.5,1c0.1,0.3,0.2,0.6,0.2,0.8
				c0,1.6-0.8,2.6-2.4,3.2c-0.2,0-0.7,0-1.4,0c-0.7,0-1.4-0.1-2.1-0.1c-0.7,0-1.4,0-2.1,0.1c-0.6,0-1.1,0-1.4,0c-0.1,0-0.5,0-1,0.1
				c-0.5,0.1-0.9,0.2-1.1,0.2c-0.8,0.2-1.5,0.6-2.1,1.3c-0.6,0.7-1.2,1.5-1.7,2.4c-0.5,0.9-0.9,1.9-1.2,2.8c-0.3,1-0.5,1.8-0.6,2.5
				v1.9c-0.2,0.7-0.3,1.3-0.6,1.9c-0.2,0.6-0.4,1.2-0.7,1.8c-0.2,0.6-0.5,1.1-0.8,1.7c-0.3,0.6-0.5,1.1-0.7,1.8
				c0,0.1-0.1,0.4-0.2,0.7c-0.1,0.3-0.2,0.5-0.2,0.6c0,0.1,0,0.3-0.1,0.6c0,0.3-0.1,0.6-0.1,0.9c0,0.3-0.1,0.6-0.1,0.9
				c0,0.2-0.1,0.4-0.1,0.5c0,0.1-0.1,0.2-0.2,0.4c-0.1,0.2-0.3,0.4-0.4,0.6c-0.2,0.2-0.3,0.4-0.4,0.6c-0.1,0.2-0.2,0.3-0.2,0.4
				c-0.2,0.4-0.4,0.8-0.5,1.2c-0.1,0.4-0.2,0.8-0.3,1.2c-0.1,0.4-0.1,0.8-0.2,1.2c-0.1,0.4-0.2,0.9-0.3,1.4C32.1,82,31.6,83,31,84.1
				c-0.6,1.1-1.1,2.1-1.6,3.1c-0.5,0.9-0.8,1.9-1.2,2.9c-0.3,1-0.7,1.9-1.1,2.9c-0.4,0.9-0.7,1.8-1,2.8c-0.2,1-0.6,1.9-1,2.8
				c0,0.1-0.1,0.2-0.2,0.4c-0.1,0.2-0.2,0.4-0.4,0.6c-0.1,0.2-0.3,0.4-0.4,0.6c-0.1,0.2-0.2,0.4-0.3,0.5c-0.8,1.1-1.6,2.2-2.2,3.3
				c-0.7,1.1-1.4,2.3-2.2,3.4l-0.1,0.2c-0.1,0.1-0.1,0.1-0.1,0.1c-0.9,0.8-1.8,1.5-2.7,2.1c-0.9,0.6-1.8,1-2.8,1.3
				c-1,0.3-2,0.6-3,0.7c-1.1,0.2-2.3,0.2-3.5,0.2H6.6c-0.5,0-1.2-0.1-2-0.1c-0.8,0-1.6-0.1-2.4-0.1c-0.8,0-1.5-0.1-2.1-0.1
				c-0.6,0-0.9,0-1,0c-0.8-0.1-1.4-0.3-2-0.6c-0.6-0.3-1.1-0.8-1.5-1.3c-0.4-0.5-0.8-1.1-1.1-1.8c-0.3-0.6-0.5-1.3-0.7-1.9
				c-0.1-0.1-0.1-0.2-0.2-0.3c-0.1-0.1-0.1-0.2-0.1-0.3V104.8z"/>
		</g>
	</g>
</g>
<g>
	<g transform="translate(77.538991, 258.914586)">
		<g>
			<path class="st0" d="M35.6,74v5c0,0.2,0.1,0.3,0.3,0.4c0.2,0.1,0.4,0.1,0.6,0.2c0.2,0,0.5,0.1,0.7,0.1c0.2,0,0.4,0,0.5,0
				c0.7,0,1.4-0.1,1.9-0.4c0.6-0.3,1.1-0.6,1.6-1.1c0.5-0.4,0.9-0.9,1.3-1.5c0.4-0.6,0.7-1.1,1.1-1.7l0.3-0.6
				c0.8-0.9,1.6-1.9,2.5-2.8c0.9-0.9,1.6-1.9,2.2-3c0-0.1,0.2-0.4,0.4-1c0.3-0.6,0.6-1.2,0.9-2c0.3-0.8,0.7-1.5,1-2.3
				c0.3-0.8,0.6-1.4,0.8-1.9c0.1-0.1,0.1-0.3,0.2-0.5c0.1-0.3,0.1-0.4,0.1-0.5v-3.1c0,0,0-0.2,0.1-0.4c0.1-0.3,0.2-0.5,0.2-0.9
				c0.1-0.3,0.2-0.6,0.2-0.9c0.1-0.3,0.1-0.4,0.1-0.5c0,0,0.1-0.2,0.1-0.4c0-0.2,0-0.4,0-0.5c0-0.4-0.1-0.8-0.2-1.4
				c-0.1-0.5-0.3-1-0.5-1.5c-0.2-0.5-0.5-0.9-0.9-1.2c-0.4-0.3-0.8-0.5-1.3-0.5c-0.2,0-0.4,0.1-0.7,0.2c-0.3,0.1-0.6,0.3-0.8,0.5
				c-0.2,0.2-0.5,0.4-0.8,0.6c-0.2,0.2-0.4,0.4-0.6,0.5c-0.2,0.2-0.5,0.5-1,1c-0.5,0.5-1,1-1.5,1.5c-0.5,0.5-1,1-1.5,1.5
				c-0.5,0.5-0.8,0.8-1,1c-0.2,0.5-0.4,1.1-0.6,1.7c-0.2,0.6-0.4,1.2-0.8,1.6c0,0.1-0.1,0.2-0.2,0.4c-0.1,0.2-0.3,0.3-0.4,0.5
				c-0.1,0.2-0.3,0.4-0.4,0.5c-0.1,0.2-0.2,0.3-0.2,0.3c0,0.1-0.1,0.2-0.2,0.3c-0.1,0.1-0.1,0.2-0.2,0.3l-0.3,0.4
				c-0.4,0.9-0.7,1.9-0.8,2.9c-0.1,1-0.3,1.9-0.5,2.9c0,0.1-0.1,0.3-0.3,0.7c-0.2,0.3-0.3,0.6-0.3,0.8c-0.1,0.1-0.1,0.2-0.2,0.5
				c-0.1,0.2-0.1,0.4-0.2,0.5C36.1,71,36,71.6,36,72.2C36,72.8,35.8,73.4,35.6,74z M29.2,71.5c0-0.9,0.1-1.8,0.2-2.6
				c0.2-0.9,0.3-1.7,0.5-2.5c0.2-0.8,0.4-1.6,0.5-2.5c0.2-0.8,0.3-1.7,0.4-2.6c0.8-1.8,1.6-3.5,2.5-5.2c0.9-1.7,1.8-3.2,2.9-4.7
				c1.1-1.5,2.3-2.8,3.6-4c1.4-1.2,2.9-2.2,4.8-3.1c0,0,0.2-0.1,0.4-0.2c0.3-0.1,0.5-0.3,0.8-0.4c0.3-0.2,0.6-0.3,0.8-0.4
				c0.3-0.1,0.4-0.2,0.5-0.2c0.1-0.1,0.3-0.1,0.7-0.1s0.7,0,0.9,0c1.5,0,2.7,0.1,3.7,0.4c1,0.3,1.9,0.8,2.6,1.4
				c0.7,0.6,1.3,1.4,1.8,2.4c0.5,1,1,2.1,1.4,3.5c0,0.2,0.1,0.4,0.1,0.7c0.1,0.3,0.1,0.5,0.2,0.8c0.1,0.2,0.1,0.5,0.2,0.7
				c0.1,0.2,0.1,0.3,0.1,0.4c0,0.1,0.1,0.2,0.1,0.4c0,0.2,0.1,0.5,0.1,0.7c0.1,0.2,0.1,0.5,0.1,0.7c0,0.2,0.1,0.4,0.1,0.4
				c0,0.1,0.1,0.2,0.2,0.5c0.1,0.3,0.2,0.4,0.2,0.5c0,0,0,0.1,0,0.3c0,0.2-0.1,0.3-0.1,0.5c0,0.2-0.1,0.4-0.1,0.5c0,0.2,0,0.2,0,0.3
				c-0.2,0.8-0.2,1.7-0.2,2.5c0,0.8-0.1,1.7-0.2,2.5c0,0.1-0.1,0.2-0.2,0.4c-0.1,0.1-0.1,0.2-0.1,0.3c-0.4,1-0.6,2-0.9,2.8
				c-0.2,0.8-0.5,1.8-0.9,2.9c0,0.1,0,0.2,0,0.3c0,0.1-0.1,0.2-0.1,0.3l-0.1,0.4c0,0.1-0.1,0.2-0.2,0.3c-0.1,0.1-0.1,0.3-0.2,0.4
				c-0.1,0.1-0.1,0.3-0.2,0.4c-0.1,0.1-0.1,0.2-0.1,0.2c0,0.1-0.1,0.3-0.2,0.7s-0.2,0.6-0.2,0.6c-0.1,0.1-0.2,0.3-0.4,0.5
				c-0.2,0.2-0.5,0.5-0.7,0.7c-0.3,0.2-0.5,0.5-0.8,0.7c-0.2,0.2-0.3,0.4-0.4,0.5c-0.1,0-0.2,0.1-0.4,0.4c-0.2,0.3-0.3,0.4-0.3,0.5
				c-0.1,0.1-0.3,0.3-0.6,0.7c-0.3,0.3-0.7,0.7-1.1,1.1c-0.4,0.4-0.8,0.7-1.1,1c-0.3,0.3-0.5,0.5-0.6,0.6c0,0.1-0.1,0.2-0.3,0.5
				c-0.2,0.3-0.3,0.5-0.4,0.6c-0.4,0.5-0.8,0.9-1.2,1.2c-0.4,0.4-0.8,0.7-1.1,1c-0.4,0.3-0.8,0.7-1.2,1c-0.4,0.3-0.9,0.7-1.4,1.1
				c-0.5,0.3-1,0.5-1.6,0.6c-0.6,0.1-1.1,0.1-1.7,0.1h-4.4c-0.3-0.2-0.8-0.4-1.3-0.8c-0.5-0.4-1.1-0.8-1.7-1.2
				c-0.6-0.4-1.1-0.9-1.5-1.3c-0.4-0.4-0.7-0.8-0.9-1.2c0,0-0.1-0.1-0.1-0.3c0-0.2-0.1-0.4-0.1-0.6c0-0.2-0.1-0.5-0.1-0.7
				c0-0.2,0-0.3,0-0.4c-0.3-1.4-0.5-2.7-0.7-4.1C29.3,74.2,29.2,72.9,29.2,71.5z"/>
		</g>
	</g>
</g>
<g>
	<g transform="translate(105.318061, 258.914586)">
		<g>
			<path class="st0" d="M40.4,81.7v-0.2c0,0,0-0.1,0-0.2c0-0.1,0.1-0.3,0.1-0.4c0.1-0.2,0.1-0.3,0.1-0.4c0-0.1,0.1-0.2,0.1-0.2
				c0-0.1,0-0.2,0-0.5c0-0.3,0-0.5,0-0.8s0-0.6,0-0.8c0-0.3,0-0.5,0-0.6c0.4-0.3,0.7-0.7,0.9-1c0.2-0.4,0.3-0.8,0.4-1.2
				c0.1-0.4,0.1-0.8,0.1-1.2c0-0.4,0.1-0.8,0.3-1.2c0.5-1.2,1-2.3,1.4-3.5c0.4-1.2,0.8-2.3,1.4-3.5c0,0,0-0.1,0.1-0.3
				c0.1-0.2,0.2-0.4,0.3-0.6c0.1-0.2,0.3-0.4,0.4-0.5c0.1-0.2,0.2-0.2,0.2-0.2c0.2-0.5,0.3-0.9,0.3-1.2c0-0.4,0-0.7,0.1-1
				c0-0.3,0.1-0.6,0.3-1c0.2-0.3,0.5-0.7,1-1.1v-1.2c0-0.2,0-0.5-0.1-0.9c0-0.4-0.1-0.7-0.2-1.1c-0.1-0.3-0.2-0.6-0.4-0.9
				c-0.2-0.3-0.5-0.4-0.8-0.4h-0.2c-0.8,0.2-1.4,0.5-2,0.7c-0.6,0.2-1.2,0.3-2.1,0.3h-0.4c-0.2,0-0.3,0-0.5,0
				c-0.2,0-0.3-0.1-0.5-0.3c0-0.1,0-0.2-0.1-0.4c0-0.2-0.1-0.4-0.1-0.6c0-0.2-0.1-0.4-0.1-0.6c0-0.2,0-0.3,0-0.4v-0.3
				c0-0.7,0.2-1.4,0.7-2.2c0.5-0.8,1-1.6,1.6-2.3c0.6-0.8,1.2-1.5,1.9-2.2c0.7-0.7,1.2-1.2,1.6-1.7c0,0,0.1-0.2,0.2-0.5
				c0.2-0.3,0.3-0.4,0.3-0.5c0.8-0.7,1.7-1.3,2.7-1.7c1-0.4,2-0.6,3.1-0.6c0.3,0,0.7,0,0.9,0.1c0.3,0,0.6,0.1,1,0.3
				c0.1,0,0.3,0.1,0.5,0.2c0.2,0.1,0.4,0.2,0.6,0.3c0.2,0.1,0.4,0.2,0.5,0.3c0.2,0.1,0.2,0.2,0.3,0.2c0,0,0.1,0.1,0.1,0.3
				c0.1,0.2,0.1,0.4,0.1,0.6c0,0.2,0,0.4,0.1,0.6c0,0.2,0,0.4,0,0.5v4.5c0,0.1,0.1,0.2,0.2,0.6c0.1,0.3,0.2,0.5,0.2,0.7
				c0.1,0.1,0.1,0.2,0.2,0.4c0.1,0.2,0.1,0.3,0.2,0.3h0.4c0.5-0.3,1-0.6,1.4-0.9c0.4-0.3,0.8-0.6,1.3-1.1c0-0.1,0.1-0.3,0.3-0.6
				c0.2-0.3,0.3-0.5,0.4-0.5c0.2-0.2,0.4-0.5,0.8-0.7c0.3-0.2,0.6-0.4,0.9-0.7c0.4-0.3,0.9-0.8,1.5-1.3c0.6-0.5,1.1-1,1.5-1.5
				c0.3-0.3,0.5-0.6,0.6-0.9c0.2-0.3,0.4-0.6,0.8-0.9c0.6-0.3,1.2-0.7,2-0.9c0.8-0.3,1.5-0.4,2.2-0.4c0.4,0,0.8,0.1,1.1,0.4
				c0.3,0.2,0.7,0.5,1,0.7c0.4,0.2,0.8,0.5,1.2,0.8c0.4,0.2,0.7,0.5,1.1,0.8c0.3,0.3,0.6,0.7,0.8,1c0.2,0.4,0.3,0.9,0.3,1.4
				c0,0.5-0.1,1.1-0.3,1.7c-0.2,0.6-0.5,1.2-0.8,1.8c-0.3,0.5-0.8,1-1.3,1.4c-0.5,0.4-1.1,0.5-1.7,0.5c-0.5,0-0.9-0.2-1.3-0.5
				c-0.4-0.3-0.8-0.7-1.2-1s-0.8-0.7-1.1-1c-0.4-0.3-0.8-0.5-1.2-0.5c-0.4,0-0.8,0.1-1.2,0.3c-0.4,0.2-0.8,0.4-1,0.7
				c-0.1,0.1-0.4,0.3-0.7,0.6c-0.3,0.3-0.7,0.7-1,1c-0.3,0.3-0.7,0.7-1,1c-0.3,0.3-0.5,0.5-0.6,0.7c-0.2,0.7-0.4,1.3-0.7,1.8
				c-0.3,0.4-0.6,0.8-1,1.1c-0.4,0.3-0.7,0.6-1.1,1c-0.4,0.3-0.8,0.7-1.2,1.2c0,0.1-0.1,0.2-0.2,0.4c-0.1,0.1-0.2,0.2-0.2,0.3
				c0,0.1-0.1,0.3-0.2,0.7c-0.1,0.4-0.1,0.8-0.2,1.2c-0.1,0.4-0.2,0.8-0.2,1.2c0,0.4-0.1,0.6-0.1,0.7c0,0.1-0.1,0.2-0.2,0.5
				c-0.1,0.2-0.1,0.4-0.2,0.4c0,0.1-0.1,0.2-0.2,0.4c-0.1,0.2-0.3,0.4-0.4,0.7c-0.1,0.2-0.3,0.5-0.4,0.6c-0.1,0.2-0.2,0.3-0.2,0.3
				c-0.1,0.1-0.2,0.2-0.3,0.4c-0.1,0.2-0.2,0.3-0.3,0.5c-0.1,0.2-0.2,0.3-0.3,0.5c-0.1,0.2-0.2,0.2-0.2,0.3
				c-0.1,0.2-0.3,0.5-0.4,0.9c-0.1,0.4-0.3,0.8-0.4,1.2c-0.1,0.4-0.3,0.8-0.5,1.2c-0.2,0.4-0.4,0.6-0.6,0.7c0,0.1,0,0.3-0.1,0.5
				c0,0.2-0.1,0.5-0.1,0.8c0,0.3-0.1,0.6-0.1,0.8c0,0.2,0,0.4,0,0.5c-0.1,0.1-0.2,0.3-0.4,0.7c-0.2,0.4-0.3,0.6-0.4,0.7
				c-0.4,0.8-0.6,1.5-0.9,2.4c-0.2,0.8-0.5,1.6-0.8,2.4c0,0-0.1,0.1-0.2,0.3c-0.1,0.1-0.2,0.3-0.3,0.5c-0.1,0.2-0.2,0.4-0.3,0.6
				c-0.1,0.2-0.1,0.3-0.1,0.4c-0.1,0.2-0.3,0.6-0.6,1.1c-0.2,0.5-0.5,0.9-0.7,1.1c-0.1,0-0.2,0.1-0.5,0.3c-0.2,0.2-0.5,0.4-0.9,0.7
				c-0.3,0.2-0.6,0.5-1,0.8c-0.3,0.3-0.6,0.5-0.8,0.6c-0.3,0.3-0.6,0.4-0.7,0.5c-0.1,0.1-0.3,0.1-0.7,0.1c-0.5,0-1-0.2-1.3-0.6
				c-0.4-0.4-0.7-0.8-1.1-1.1c0,0,0-0.1-0.1-0.3c-0.1-0.2-0.1-0.3-0.1-0.3c0-0.1,0-0.2-0.1-0.5c0-0.3-0.1-0.5-0.1-0.9
				c0-0.3-0.1-0.6-0.1-0.9c0-0.3-0.1-0.6-0.1-0.7V81.7z"/>
		</g>
	</g>
</g>
</svg>
