<svg xmlns="http://www.w3.org/2000/svg" xmlns:xlink="http://www.w3.org/1999/xlink" width="1000" zoomAndPan="magnify" viewBox="0 0 750 374.999991" height="500" preserveAspectRatio="xMidYMid meet" version="1.0"><defs><g/></defs><g fill="#36498e" fill-opacity="1"><g transform="translate(26.653414, 172.342806)"><g><path d="M 43.671875 -100.78125 C 49.023438 -100.78125 54.257812 -100 59.375 -98.4375 C 64.5 -96.875 68.300781 -95.332031 70.78125 -93.8125 L 74.375 -91.421875 L 65.265625 -73.421875 C 64.546875 -73.898438 63.546875 -74.519531 62.265625 -75.28125 C 60.984375 -76.039062 58.582031 -77.0625 55.0625 -78.34375 C 51.539062 -79.625 48.265625 -80.265625 45.234375 -80.265625 C 41.472656 -80.265625 38.570312 -79.460938 36.53125 -77.859375 C 34.488281 -76.253906 33.46875 -74.09375 33.46875 -71.375 C 33.46875 -70.019531 33.945312 -68.757812 34.90625 -67.59375 C 35.863281 -66.4375 37.503906 -65.195312 39.828125 -63.875 C 42.148438 -62.5625 44.191406 -61.503906 45.953125 -60.703125 C 47.710938 -59.898438 50.429688 -58.703125 54.109375 -57.109375 C 60.503906 -54.390625 65.960938 -50.6875 70.484375 -46 C 75.003906 -41.320312 77.265625 -36.023438 77.265625 -30.109375 C 77.265625 -24.429688 76.242188 -19.472656 74.203125 -15.234375 C 72.160156 -10.992188 69.359375 -7.671875 65.796875 -5.265625 C 62.242188 -2.867188 58.304688 -1.09375 53.984375 0.0625 C 49.660156 1.21875 44.984375 1.796875 39.953125 1.796875 C 35.628906 1.796875 31.390625 1.351562 27.234375 0.46875 C 23.078125 -0.40625 19.597656 -1.5 16.796875 -2.8125 C 13.992188 -4.132812 11.472656 -5.4375 9.234375 -6.71875 C 6.992188 -8 5.351562 -9.078125 4.3125 -9.953125 L 2.765625 -11.28125 L 14.03125 -30.234375 C 14.988281 -29.429688 16.304688 -28.410156 17.984375 -27.171875 C 19.671875 -25.929688 22.648438 -24.269531 26.921875 -22.1875 C 31.203125 -20.113281 34.984375 -19.078125 38.265625 -19.078125 C 47.785156 -19.078125 52.546875 -22.316406 52.546875 -28.796875 C 52.546875 -30.148438 52.203125 -31.40625 51.515625 -32.5625 C 50.835938 -33.726562 49.640625 -34.890625 47.921875 -36.046875 C 46.203125 -37.210938 44.679688 -38.132812 43.359375 -38.8125 C 42.046875 -39.488281 39.890625 -40.523438 36.890625 -41.921875 C 33.890625 -43.328125 31.671875 -44.390625 30.234375 -45.109375 C 24.234375 -48.066406 19.59375 -51.765625 16.3125 -56.203125 C 13.03125 -60.640625 11.390625 -65.421875 11.390625 -70.546875 C 11.390625 -79.421875 14.671875 -86.675781 21.234375 -92.3125 C 27.796875 -97.957031 35.273438 -100.78125 43.671875 -100.78125 Z M 43.671875 -100.78125 "/></g></g></g><g fill="#36498e" fill-opacity="1"><g transform="translate(121.656762, 172.342806)"><g><path d="M 83.140625 0 L 67.296875 -55.546875 L 51.46875 0 L 26.390625 0 L -1.796875 -98.96875 L 23.28125 -98.96875 L 40.1875 -31.078125 L 40.796875 -31.078125 L 58.78125 -98.96875 L 75.8125 -98.96875 L 93.8125 -31.078125 L 94.421875 -31.078125 L 111.328125 -98.96875 L 136.28125 -98.96875 L 108.09375 0 Z M 83.140625 0 "/></g></g></g><g fill="#36498e" fill-opacity="1"><g transform="translate(270.518489, 172.342806)"><g><path d="M 29.75 -98.96875 L 29.75 0 L 7.203125 0 L 7.203125 -98.96875 Z M 29.75 -98.96875 "/></g></g></g><g fill="#36498e" fill-opacity="1"><g transform="translate(321.85935, 172.342806)"><g><path d="M 64.421875 -98.96875 L 64.421875 -79.171875 L 29.75 -79.171875 L 29.75 -59.5 L 61.78125 -59.5 L 61.78125 -39.703125 L 29.75 -39.703125 L 29.75 0 L 7.203125 0 L 7.203125 -98.96875 Z M 64.421875 -98.96875 "/></g></g></g><g fill="#36498e" fill-opacity="1"><g transform="translate(404.267753, 172.342806)"><g><path d="M 0.953125 -79.171875 L 0.953125 -98.96875 L 70.546875 -98.96875 L 70.546875 -79.171875 L 47.03125 -79.171875 L 47.03125 0 L 24.46875 0 L 24.46875 -79.171875 Z M 0.953125 -79.171875 "/></g></g></g><g fill="#36498e" fill-opacity="1"><g transform="translate(490.154754, 172.342806)"><g><path d="M 29.75 -98.96875 L 29.75 0 L 7.203125 0 L 7.203125 -98.96875 Z M 29.75 -98.96875 "/></g></g></g><g fill="#36498e" fill-opacity="1"><g transform="translate(541.495615, 172.342806)"><g><path d="M 63.828125 -98.96875 L 63.828125 -79.171875 L 29.75 -79.171875 L 29.75 -59.5 L 62.390625 -59.5 L 62.390625 -39.703125 L 29.75 -39.703125 L 29.75 -19.796875 L 63.828125 -19.796875 L 63.828125 0 L 7.203125 0 L 7.203125 -98.96875 Z M 63.828125 -98.96875 "/></g></g></g><g fill="#36498e" fill-opacity="1"><g transform="translate(625.463372, 172.342806)"><g><path d="M 43.671875 -100.78125 C 49.023438 -100.78125 54.257812 -100 59.375 -98.4375 C 64.5 -96.875 68.300781 -95.332031 70.78125 -93.8125 L 74.375 -91.421875 L 65.265625 -73.421875 C 64.546875 -73.898438 63.546875 -74.519531 62.265625 -75.28125 C 60.984375 -76.039062 58.582031 -77.0625 55.0625 -78.34375 C 51.539062 -79.625 48.265625 -80.265625 45.234375 -80.265625 C 41.472656 -80.265625 38.570312 -79.460938 36.53125 -77.859375 C 34.488281 -76.253906 33.46875 -74.09375 33.46875 -71.375 C 33.46875 -70.019531 33.945312 -68.757812 34.90625 -67.59375 C 35.863281 -66.4375 37.503906 -65.195312 39.828125 -63.875 C 42.148438 -62.5625 44.191406 -61.503906 45.953125 -60.703125 C 47.710938 -59.898438 50.429688 -58.703125 54.109375 -57.109375 C 60.503906 -54.390625 65.960938 -50.6875 70.484375 -46 C 75.003906 -41.320312 77.265625 -36.023438 77.265625 -30.109375 C 77.265625 -24.429688 76.242188 -19.472656 74.203125 -15.234375 C 72.160156 -10.992188 69.359375 -7.671875 65.796875 -5.265625 C 62.242188 -2.867188 58.304688 -1.09375 53.984375 0.0625 C 49.660156 1.21875 44.984375 1.796875 39.953125 1.796875 C 35.628906 1.796875 31.390625 1.351562 27.234375 0.46875 C 23.078125 -0.40625 19.597656 -1.5 16.796875 -2.8125 C 13.992188 -4.132812 11.472656 -5.4375 9.234375 -6.71875 C 6.992188 -8 5.351562 -9.078125 4.3125 -9.953125 L 2.765625 -11.28125 L 14.03125 -30.234375 C 14.988281 -29.429688 16.304688 -28.410156 17.984375 -27.171875 C 19.671875 -25.929688 22.648438 -24.269531 26.921875 -22.1875 C 31.203125 -20.113281 34.984375 -19.078125 38.265625 -19.078125 C 47.785156 -19.078125 52.546875 -22.316406 52.546875 -28.796875 C 52.546875 -30.148438 52.203125 -31.40625 51.515625 -32.5625 C 50.835938 -33.726562 49.640625 -34.890625 47.921875 -36.046875 C 46.203125 -37.210938 44.679688 -38.132812 43.359375 -38.8125 C 42.046875 -39.488281 39.890625 -40.523438 36.890625 -41.921875 C 33.890625 -43.328125 31.671875 -44.390625 30.234375 -45.109375 C 24.234375 -48.066406 19.59375 -51.765625 16.3125 -56.203125 C 13.03125 -60.640625 11.390625 -65.421875 11.390625 -70.546875 C 11.390625 -79.421875 14.671875 -86.675781 21.234375 -92.3125 C 27.796875 -97.957031 35.273438 -100.78125 43.671875 -100.78125 Z M 43.671875 -100.78125 "/></g></g></g><g fill="#36498e" fill-opacity="1"><g transform="translate(148.966859, 281.988814)"><g><path d="M 86.890625 0 L 59.140625 0 L 26.578125 -37.5 L 26.578125 0 L 6.421875 0 L 6.421875 -88.390625 L 26.578125 -88.390625 L 26.578125 -52.28125 L 56.890625 -88.390625 L 81.3125 -88.390625 L 45.75 -46.5 Z M 86.890625 0 "/></g></g></g><g fill="#36498e" fill-opacity="1"><g transform="translate(243.998884, 281.988814)"><g><path d="M 51.328125 -88.390625 L 87 0 L 65.359375 0 L 58.8125 -17.671875 L 25.171875 -17.671875 L 18.640625 0 L -3 0 L 32.671875 -88.390625 Z M 51.96875 -35.359375 L 42.109375 -61.0625 L 41.890625 -61.0625 L 32.03125 -35.359375 Z M 51.96875 -35.359375 "/></g></g></g><g fill="#36498e" fill-opacity="1"><g transform="translate(338.709503, 281.988814)"><g><path d="M 79.5 0 L 75.3125 -52.390625 L 74.78125 -52.390625 L 56.671875 -0.53125 L 44.671875 -0.53125 L 26.578125 -52.390625 L 26.03125 -52.390625 L 21.859375 0 L 1.71875 0 L 9.640625 -88.390625 L 31.078125 -88.390625 L 50.671875 -37.390625 L 70.28125 -88.390625 L 91.71875 -88.390625 L 99.640625 0 Z M 79.5 0 "/></g></g></g><g fill="#36498e" fill-opacity="1"><g transform="translate(450.77629, 281.988814)"><g><path d="M 51.328125 -88.390625 L 87 0 L 65.359375 0 L 58.8125 -17.671875 L 25.171875 -17.671875 L 18.640625 0 L -3 0 L 32.671875 -88.390625 Z M 51.96875 -35.359375 L 42.109375 -61.0625 L 41.890625 -61.0625 L 32.03125 -35.359375 Z M 51.96875 -35.359375 "/></g></g></g><g fill="#36498e" fill-opacity="1"><g transform="translate(545.486916, 281.988814)"><g><path d="M 26.578125 -88.390625 L 26.578125 -17.671875 L 57 -17.671875 L 57 0 L 6.421875 0 L 6.421875 -88.390625 Z M 26.578125 -88.390625 "/></g></g></g><g fill="#36498e" fill-opacity="1"><g transform="translate(616.734532, 281.988814)"><g><path d="M 51.328125 -88.390625 L 87 0 L 65.359375 0 L 58.8125 -17.671875 L 25.171875 -17.671875 L 18.640625 0 L -3 0 L 32.671875 -88.390625 Z M 51.96875 -35.359375 L 42.109375 -61.0625 L 41.890625 -61.0625 L 32.03125 -35.359375 Z M 51.96875 -35.359375 "/></g></g></g><g fill="#ff3131" fill-opacity="1"><g transform="translate(53.541366, 258.914586)"><g><path d="M -18.21875 13.890625 C -18.21875 13.617188 -18.195312 13.4375 -18.15625 13.34375 C -18.125 13.25 -18 13.054688 -17.78125 12.765625 C -17.613281 12.546875 -17.359375 12.289062 -17.015625 12 C -16.847656 11.851562 -16.679688 11.695312 -16.515625 11.53125 C -16.460938 11.53125 -16.304688 11.515625 -16.046875 11.484375 C -15.796875 11.460938 -15.597656 11.453125 -15.453125 11.453125 C -14.722656 11.453125 -14.128906 11.640625 -13.671875 12.015625 C -13.210938 12.390625 -12.765625 12.804688 -12.328125 13.265625 C -11.890625 13.734375 -11.40625 14.15625 -10.875 14.53125 C -10.34375 14.90625 -9.640625 15.09375 -8.765625 15.09375 L -7.703125 15.09375 C -7.628906 15.0625 -7.515625 14.988281 -7.359375 14.875 C -7.203125 14.769531 -7.039062 14.664062 -6.875 14.5625 C -6.707031 14.457031 -6.550781 14.347656 -6.40625 14.234375 C -6.257812 14.128906 -6.171875 14.0625 -6.140625 14.03125 C -6.140625 13.988281 -6.066406 13.945312 -5.921875 13.90625 C -5.773438 13.875 -5.679688 13.859375 -5.640625 13.859375 C -5.222656 13.660156 -4.878906 13.4375 -4.609375 13.1875 C -4.347656 12.945312 -4.113281 12.679688 -3.90625 12.390625 C -3.695312 12.109375 -3.5 11.804688 -3.3125 11.484375 C -3.132812 11.171875 -2.925781 10.847656 -2.6875 10.515625 C -2.644531 10.484375 -2.566406 10.40625 -2.453125 10.28125 C -2.347656 10.164062 -2.238281 10.039062 -2.125 9.90625 C -2.019531 9.769531 -1.914062 9.632812 -1.8125 9.5 C -1.71875 9.375 -1.644531 9.285156 -1.59375 9.234375 C -1.550781 9.210938 -1.507812 9.144531 -1.46875 9.03125 C -1.4375 8.925781 -1.421875 8.847656 -1.421875 8.796875 C -0.929688 7.585938 -0.421875 6.429688 0.109375 5.328125 C 0.640625 4.222656 1.160156 3.101562 1.671875 1.96875 C 1.722656 1.863281 1.796875 1.679688 1.890625 1.421875 C 1.984375 1.171875 2.082031 0.898438 2.1875 0.609375 C 2.300781 0.328125 2.398438 0.0507812 2.484375 -0.21875 C 2.578125 -0.488281 2.632812 -0.679688 2.65625 -0.796875 C 2.65625 -0.828125 2.664062 -0.90625 2.6875 -1.03125 C 2.71875 -1.164062 2.742188 -1.304688 2.765625 -1.453125 C 2.785156 -1.597656 2.8125 -1.726562 2.84375 -1.84375 C 2.882812 -1.96875 2.90625 -2.046875 2.90625 -2.078125 C 2.925781 -2.148438 2.984375 -2.304688 3.078125 -2.546875 C 3.179688 -2.785156 3.285156 -3.046875 3.390625 -3.328125 C 3.503906 -3.609375 3.613281 -3.867188 3.71875 -4.109375 C 3.832031 -4.347656 3.898438 -4.503906 3.921875 -4.578125 C 3.921875 -4.628906 3.960938 -4.753906 4.046875 -4.953125 C 4.140625 -5.160156 4.1875 -5.289062 4.1875 -5.34375 C 4.1875 -5.414062 4.222656 -5.515625 4.296875 -5.640625 L 4.4375 -5.859375 L 4.875 -6.296875 C 5.019531 -6.554688 5.140625 -6.816406 5.234375 -7.078125 C 5.328125 -7.347656 5.421875 -7.609375 5.515625 -7.859375 C 5.617188 -8.117188 5.738281 -8.375 5.875 -8.625 C 6.007812 -8.882812 6.195312 -9.132812 6.4375 -9.375 C 6.457031 -9.519531 6.515625 -9.769531 6.609375 -10.125 C 6.710938 -10.476562 6.816406 -10.851562 6.921875 -11.25 C 7.035156 -11.65625 7.132812 -12.035156 7.21875 -12.390625 C 7.300781 -12.753906 7.351562 -13.007812 7.375 -13.15625 C 7.425781 -13.207031 7.503906 -13.351562 7.609375 -13.59375 C 7.722656 -13.84375 7.832031 -14.109375 7.9375 -14.390625 C 8.050781 -14.679688 8.15625 -14.945312 8.25 -15.1875 C 8.351562 -15.4375 8.425781 -15.597656 8.46875 -15.671875 C 8.46875 -15.671875 8.476562 -15.71875 8.5 -15.8125 C 8.53125 -15.914062 8.554688 -16.019531 8.578125 -16.125 C 8.609375 -16.238281 8.628906 -16.347656 8.640625 -16.453125 C 8.648438 -16.566406 8.65625 -16.632812 8.65625 -16.65625 C 8.875 -17.28125 9.140625 -17.898438 9.453125 -18.515625 C 9.765625 -19.140625 10.019531 -19.78125 10.21875 -20.4375 C 10.34375 -20.875 10.410156 -21.265625 10.421875 -21.609375 C 10.429688 -21.960938 10.535156 -22.347656 10.734375 -22.765625 C 10.753906 -22.785156 10.800781 -22.847656 10.875 -22.953125 C 10.945312 -23.066406 11.023438 -23.195312 11.109375 -23.34375 C 11.191406 -23.488281 11.269531 -23.628906 11.34375 -23.765625 C 11.414062 -23.898438 11.460938 -23.988281 11.484375 -24.03125 C 11.515625 -24.0625 11.546875 -24.097656 11.578125 -24.140625 C 11.617188 -24.191406 11.648438 -24.242188 11.671875 -24.296875 C 11.691406 -24.367188 11.71875 -24.425781 11.75 -24.46875 L 11.75 -26.21875 C 11.5 -26.550781 11.1875 -26.75 10.8125 -26.8125 C 10.4375 -26.875 10.03125 -26.90625 9.59375 -26.90625 L 8.515625 -26.90625 C 8.367188 -26.90625 8.226562 -26.90625 8.09375 -26.90625 C 7.957031 -26.90625 7.828125 -26.929688 7.703125 -26.984375 C 7.660156 -26.984375 7.585938 -27.003906 7.484375 -27.046875 C 7.390625 -27.097656 7.285156 -27.160156 7.171875 -27.234375 C 7.066406 -27.304688 6.96875 -27.363281 6.875 -27.40625 C 6.78125 -27.457031 6.71875 -27.484375 6.6875 -27.484375 C 6.207031 -27.660156 5.828125 -27.804688 5.546875 -27.921875 C 5.265625 -28.046875 5.125 -28.382812 5.125 -28.9375 C 5.125 -28.988281 5.125 -29.046875 5.125 -29.109375 C 5.125 -29.171875 5.132812 -29.222656 5.15625 -29.265625 C 5.15625 -29.335938 5.171875 -29.410156 5.203125 -29.484375 C 5.222656 -29.554688 5.285156 -29.65625 5.390625 -29.78125 C 5.503906 -29.90625 5.617188 -30.035156 5.734375 -30.171875 C 5.859375 -30.316406 5.988281 -30.441406 6.125 -30.546875 C 6.257812 -30.660156 6.363281 -30.734375 6.4375 -30.765625 C 6.582031 -30.765625 6.835938 -30.773438 7.203125 -30.796875 C 7.566406 -30.816406 7.945312 -30.835938 8.34375 -30.859375 C 8.738281 -30.890625 9.117188 -30.914062 9.484375 -30.9375 C 9.847656 -30.96875 10.09375 -30.992188 10.21875 -31.015625 C 10.695312 -31.066406 11.15625 -31.175781 11.59375 -31.34375 C 12.03125 -31.507812 12.410156 -31.8125 12.734375 -32.25 C 12.796875 -32.34375 12.910156 -32.523438 13.078125 -32.796875 C 13.253906 -33.066406 13.429688 -33.347656 13.609375 -33.640625 C 13.796875 -33.929688 13.972656 -34.207031 14.140625 -34.46875 C 14.316406 -34.738281 14.441406 -34.929688 14.515625 -35.046875 C 14.847656 -35.679688 15.109375 -36.304688 15.296875 -36.921875 C 15.492188 -37.546875 15.726562 -38.171875 16 -38.796875 C 16.050781 -38.867188 16.097656 -38.960938 16.140625 -39.078125 C 16.191406 -39.203125 16.253906 -39.28125 16.328125 -39.3125 C 16.328125 -39.332031 16.359375 -39.394531 16.421875 -39.5 C 16.484375 -39.613281 16.554688 -39.722656 16.640625 -39.828125 C 16.722656 -39.941406 16.800781 -40.050781 16.875 -40.15625 C 16.945312 -40.269531 16.992188 -40.347656 17.015625 -40.390625 C 17.035156 -40.421875 17.082031 -40.53125 17.15625 -40.71875 C 17.226562 -40.914062 17.304688 -41.125 17.390625 -41.34375 C 17.484375 -41.5625 17.566406 -41.765625 17.640625 -41.953125 C 17.710938 -42.148438 17.757812 -42.273438 17.78125 -42.328125 C 17.78125 -42.367188 17.8125 -42.457031 17.875 -42.59375 C 17.9375 -42.726562 17.988281 -42.832031 18.03125 -42.90625 C 18.132812 -43.03125 18.265625 -43.210938 18.421875 -43.453125 C 18.578125 -43.691406 18.734375 -43.929688 18.890625 -44.171875 C 19.046875 -44.421875 19.179688 -44.632812 19.296875 -44.8125 C 19.421875 -45 19.5 -45.09375 19.53125 -45.09375 C 19.96875 -45.550781 20.429688 -45.960938 20.921875 -46.328125 C 21.421875 -46.691406 21.941406 -47.023438 22.484375 -47.328125 C 23.035156 -47.628906 23.59375 -47.929688 24.15625 -48.234375 C 24.726562 -48.535156 25.28125 -48.859375 25.8125 -49.203125 C 25.863281 -49.203125 25.957031 -49.257812 26.09375 -49.375 C 26.226562 -49.5 26.332031 -49.585938 26.40625 -49.640625 C 26.40625 -49.679688 26.460938 -49.734375 26.578125 -49.796875 C 26.703125 -49.859375 26.785156 -49.890625 26.828125 -49.890625 C 26.953125 -49.890625 27.160156 -49.894531 27.453125 -49.90625 C 27.742188 -49.914062 28.046875 -49.921875 28.359375 -49.921875 C 28.671875 -49.921875 28.96875 -49.925781 29.25 -49.9375 C 29.53125 -49.957031 29.734375 -49.96875 29.859375 -49.96875 C 30.847656 -49.96875 31.785156 -49.9375 32.671875 -49.875 C 33.554688 -49.8125 34.40625 -49.671875 35.21875 -49.453125 C 36.03125 -49.234375 36.796875 -48.90625 37.515625 -48.46875 C 38.242188 -48.03125 38.960938 -47.4375 39.671875 -46.6875 C 39.691406 -46.613281 39.742188 -46.515625 39.828125 -46.390625 C 39.921875 -46.273438 40.007812 -46.144531 40.09375 -46 C 40.175781 -45.851562 40.242188 -45.710938 40.296875 -45.578125 C 40.359375 -45.441406 40.390625 -45.328125 40.390625 -45.234375 C 40.390625 -44.410156 40.207031 -43.675781 39.84375 -43.03125 C 39.488281 -42.394531 38.835938 -42.078125 37.890625 -42.078125 C 37.597656 -42.078125 37.382812 -42.128906 37.25 -42.234375 C 37.113281 -42.335938 37.003906 -42.476562 36.921875 -42.65625 C 36.835938 -42.84375 36.765625 -43.039062 36.703125 -43.25 C 36.640625 -43.457031 36.550781 -43.660156 36.4375 -43.859375 C 35.875 -44.503906 35.332031 -45.050781 34.8125 -45.5 C 34.289062 -45.945312 33.617188 -46.171875 32.796875 -46.171875 C 32.171875 -46.171875 31.628906 -46.035156 31.171875 -45.765625 C 30.722656 -45.503906 30.195312 -45.28125 29.59375 -45.09375 C 28.9375 -44.875 28.300781 -44.628906 27.6875 -44.359375 C 27.070312 -44.097656 26.445312 -43.757812 25.8125 -43.34375 C 25.769531 -43.289062 25.691406 -43.21875 25.578125 -43.125 C 25.472656 -43.03125 25.382812 -42.957031 25.3125 -42.90625 C 25.207031 -42.757812 25.054688 -42.535156 24.859375 -42.234375 C 24.671875 -41.929688 24.472656 -41.617188 24.265625 -41.296875 C 24.066406 -40.984375 23.875 -40.679688 23.6875 -40.390625 C 23.507812 -40.109375 23.382812 -39.914062 23.3125 -39.8125 C 22.96875 -39.207031 22.71875 -38.660156 22.5625 -38.171875 C 22.40625 -37.691406 22.226562 -37.171875 22.03125 -36.609375 C 21.84375 -35.910156 21.613281 -35.265625 21.34375 -34.671875 C 21.070312 -34.078125 20.804688 -33.460938 20.546875 -32.828125 L 20.546875 -32.5 C 20.566406 -32.40625 20.632812 -32.238281 20.75 -32 C 20.875 -31.757812 20.972656 -31.613281 21.046875 -31.5625 C 21.097656 -31.4375 21.179688 -31.300781 21.296875 -31.15625 C 21.421875 -31.007812 21.5 -30.9375 21.53125 -30.9375 L 26.828125 -30.9375 C 27.003906 -30.9375 27.179688 -30.835938 27.359375 -30.640625 C 27.546875 -30.453125 27.71875 -30.226562 27.875 -29.96875 C 28.03125 -29.71875 28.15625 -29.460938 28.25 -29.203125 C 28.351562 -28.953125 28.40625 -28.753906 28.40625 -28.609375 C 28.40625 -27.421875 27.796875 -26.625 26.578125 -26.21875 C 26.390625 -26.21875 26.039062 -26.226562 25.53125 -26.25 C 25.019531 -26.28125 24.484375 -26.296875 23.921875 -26.296875 C 23.367188 -26.296875 22.847656 -26.28125 22.359375 -26.25 C 21.878906 -26.226562 21.539062 -26.21875 21.34375 -26.21875 C 21.25 -26.21875 21.003906 -26.1875 20.609375 -26.125 C 20.222656 -26.0625 19.945312 -26.007812 19.78125 -25.96875 C 19.195312 -25.84375 18.660156 -25.519531 18.171875 -25 C 17.691406 -24.476562 17.265625 -23.867188 16.890625 -23.171875 C 16.515625 -22.484375 16.203125 -21.773438 15.953125 -21.046875 C 15.710938 -20.328125 15.554688 -19.710938 15.484375 -19.203125 L 15.484375 -17.75 C 15.367188 -17.238281 15.226562 -16.757812 15.0625 -16.3125 C 14.90625 -15.863281 14.738281 -15.425781 14.5625 -15 C 14.382812 -14.570312 14.195312 -14.144531 14 -13.71875 C 13.800781 -13.300781 13.628906 -12.863281 13.484375 -12.40625 C 13.484375 -12.300781 13.441406 -12.128906 13.359375 -11.890625 C 13.273438 -11.648438 13.234375 -11.503906 13.234375 -11.453125 C 13.234375 -11.378906 13.21875 -11.238281 13.1875 -11.03125 C 13.164062 -10.832031 13.144531 -10.613281 13.125 -10.375 C 13.101562 -10.144531 13.078125 -9.929688 13.046875 -9.734375 C 13.023438 -9.546875 13.003906 -9.425781 12.984375 -9.375 C 12.953125 -9.332031 12.890625 -9.238281 12.796875 -9.09375 C 12.703125 -8.945312 12.59375 -8.785156 12.46875 -8.609375 C 12.351562 -8.441406 12.242188 -8.285156 12.140625 -8.140625 C 12.046875 -7.992188 11.988281 -7.898438 11.96875 -7.859375 C 11.820312 -7.535156 11.703125 -7.226562 11.609375 -6.9375 C 11.523438 -6.65625 11.453125 -6.351562 11.390625 -6.03125 C 11.335938 -5.71875 11.28125 -5.40625 11.21875 -5.09375 C 11.15625 -4.78125 11.078125 -4.441406 10.984375 -4.078125 C 10.691406 -3.253906 10.328125 -2.445312 9.890625 -1.65625 C 9.453125 -0.863281 9.039062 -0.0820312 8.65625 0.6875 C 8.3125 1.394531 8.019531 2.117188 7.78125 2.859375 C 7.539062 3.597656 7.257812 4.316406 6.9375 5.015625 C 6.625 5.691406 6.382812 6.390625 6.21875 7.109375 C 6.050781 7.828125 5.796875 8.535156 5.453125 9.234375 C 5.429688 9.285156 5.375 9.375 5.28125 9.5 C 5.195312 9.632812 5.101562 9.78125 5 9.9375 C 4.894531 10.101562 4.789062 10.265625 4.6875 10.421875 C 4.59375 10.578125 4.507812 10.691406 4.4375 10.765625 C 3.832031 11.585938 3.273438 12.421875 2.765625 13.265625 C 2.253906 14.117188 1.695312 14.957031 1.09375 15.78125 L 1.015625 15.921875 C 0.972656 15.992188 0.9375 16.03125 0.90625 16.03125 C 0.207031 16.664062 -0.472656 17.1875 -1.140625 17.59375 C -1.804688 18.007812 -2.5 18.34375 -3.21875 18.59375 C -3.9375 18.851562 -4.691406 19.035156 -5.484375 19.140625 C -6.285156 19.253906 -7.171875 19.3125 -8.140625 19.3125 L -8.40625 19.3125 C -8.789062 19.28125 -9.285156 19.253906 -9.890625 19.234375 C -10.492188 19.210938 -11.085938 19.1875 -11.671875 19.15625 C -12.253906 19.132812 -12.769531 19.109375 -13.21875 19.078125 C -13.664062 19.054688 -13.925781 19.046875 -14 19.046875 C -14.582031 19.003906 -15.082031 18.847656 -15.5 18.578125 C -15.925781 18.316406 -16.296875 17.984375 -16.609375 17.578125 C -16.929688 17.179688 -17.203125 16.738281 -17.421875 16.25 C -17.640625 15.769531 -17.820312 15.285156 -17.96875 14.796875 C -18.007812 14.703125 -18.054688 14.617188 -18.109375 14.546875 C -18.179688 14.453125 -18.21875 14.367188 -18.21875 14.296875 Z M -18.21875 13.890625 "/></g></g></g><g fill="#ff3131" fill-opacity="1"><g transform="translate(77.538991, 258.914586)"><g><path d="M 7.3125 -9.203125 L 7.3125 -5.421875 C 7.3125 -5.296875 7.382812 -5.207031 7.53125 -5.15625 C 7.675781 -5.113281 7.835938 -5.070312 8.015625 -5.03125 C 8.203125 -5 8.382812 -4.984375 8.5625 -4.984375 C 8.738281 -4.984375 8.863281 -4.984375 8.9375 -4.984375 C 9.476562 -4.984375 9.960938 -5.082031 10.390625 -5.28125 C 10.828125 -5.488281 11.222656 -5.753906 11.578125 -6.078125 C 11.929688 -6.410156 12.253906 -6.789062 12.546875 -7.21875 C 12.835938 -7.644531 13.101562 -8.078125 13.34375 -8.515625 L 13.59375 -8.9375 C 14.175781 -9.644531 14.800781 -10.335938 15.46875 -11.015625 C 16.132812 -11.691406 16.675781 -12.441406 17.09375 -13.265625 C 17.113281 -13.316406 17.21875 -13.554688 17.40625 -13.984375 C 17.601562 -14.410156 17.820312 -14.898438 18.0625 -15.453125 C 18.3125 -16.015625 18.5625 -16.578125 18.8125 -17.140625 C 19.070312 -17.710938 19.273438 -18.179688 19.421875 -18.546875 C 19.460938 -18.617188 19.507812 -18.75 19.5625 -18.9375 C 19.613281 -19.132812 19.640625 -19.257812 19.640625 -19.3125 L 19.640625 -21.640625 C 19.640625 -21.660156 19.660156 -21.765625 19.703125 -21.953125 C 19.753906 -22.148438 19.816406 -22.363281 19.890625 -22.59375 C 19.960938 -22.820312 20.019531 -23.035156 20.0625 -23.234375 C 20.113281 -23.429688 20.140625 -23.550781 20.140625 -23.59375 C 20.171875 -23.625 20.1875 -23.710938 20.1875 -23.859375 C 20.1875 -24.003906 20.1875 -24.125 20.1875 -24.21875 C 20.1875 -24.507812 20.140625 -24.851562 20.046875 -25.25 C 19.960938 -25.65625 19.828125 -26.035156 19.640625 -26.390625 C 19.460938 -26.753906 19.234375 -27.054688 18.953125 -27.296875 C 18.679688 -27.546875 18.363281 -27.671875 18 -27.671875 C 17.851562 -27.671875 17.675781 -27.617188 17.46875 -27.515625 C 17.257812 -27.421875 17.054688 -27.300781 16.859375 -27.15625 C 16.671875 -27.007812 16.476562 -26.863281 16.28125 -26.71875 C 16.09375 -26.570312 15.953125 -26.453125 15.859375 -26.359375 C 15.734375 -26.210938 15.488281 -25.960938 15.125 -25.609375 C 14.757812 -25.265625 14.375 -24.890625 13.96875 -24.484375 C 13.570312 -24.085938 13.191406 -23.707031 12.828125 -23.34375 C 12.472656 -22.976562 12.222656 -22.722656 12.078125 -22.578125 C 11.898438 -22.191406 11.75 -21.757812 11.625 -21.28125 C 11.507812 -20.8125 11.316406 -20.410156 11.046875 -20.078125 C 11.046875 -20.023438 10.992188 -19.9375 10.890625 -19.8125 C 10.785156 -19.695312 10.675781 -19.570312 10.5625 -19.4375 C 10.457031 -19.300781 10.347656 -19.164062 10.234375 -19.03125 C 10.128906 -18.894531 10.078125 -18.816406 10.078125 -18.796875 C 10.046875 -18.742188 10 -18.675781 9.9375 -18.59375 C 9.882812 -18.507812 9.832031 -18.429688 9.78125 -18.359375 L 9.5625 -18.078125 C 9.25 -17.367188 9.046875 -16.648438 8.953125 -15.921875 C 8.867188 -15.191406 8.734375 -14.476562 8.546875 -13.78125 C 8.546875 -13.707031 8.472656 -13.535156 8.328125 -13.265625 C 8.179688 -13.003906 8.109375 -12.8125 8.109375 -12.6875 C 8.054688 -12.644531 8 -12.53125 7.9375 -12.34375 C 7.882812 -12.164062 7.832031 -12.050781 7.78125 -12 C 7.6875 -11.507812 7.628906 -11.039062 7.609375 -10.59375 C 7.597656 -10.144531 7.5 -9.679688 7.3125 -9.203125 Z M 2.515625 -11.125 C 2.515625 -11.800781 2.570312 -12.460938 2.6875 -13.109375 C 2.8125 -13.753906 2.945312 -14.382812 3.09375 -15 C 3.238281 -15.613281 3.375 -16.234375 3.5 -16.859375 C 3.632812 -17.492188 3.726562 -18.140625 3.78125 -18.796875 C 4.382812 -20.128906 5.015625 -21.421875 5.671875 -22.671875 C 6.328125 -23.921875 7.050781 -25.085938 7.84375 -26.171875 C 8.644531 -27.265625 9.554688 -28.257812 10.578125 -29.15625 C 11.597656 -30.050781 12.785156 -30.816406 14.140625 -31.453125 C 14.171875 -31.472656 14.28125 -31.53125 14.46875 -31.625 C 14.664062 -31.726562 14.875 -31.832031 15.09375 -31.9375 C 15.3125 -32.050781 15.515625 -32.15625 15.703125 -32.25 C 15.898438 -32.34375 16.035156 -32.390625 16.109375 -32.390625 C 16.160156 -32.441406 16.34375 -32.46875 16.65625 -32.46875 C 16.96875 -32.46875 17.195312 -32.46875 17.34375 -32.46875 C 18.4375 -32.46875 19.363281 -32.359375 20.125 -32.140625 C 20.882812 -31.921875 21.53125 -31.570312 22.0625 -31.09375 C 22.601562 -30.625 23.0625 -30.023438 23.4375 -29.296875 C 23.8125 -28.578125 24.15625 -27.707031 24.46875 -26.6875 C 24.488281 -26.5625 24.523438 -26.394531 24.578125 -26.1875 C 24.628906 -25.988281 24.675781 -25.789062 24.71875 -25.59375 C 24.769531 -25.40625 24.8125 -25.238281 24.84375 -25.09375 C 24.882812 -24.945312 24.90625 -24.859375 24.90625 -24.828125 C 24.925781 -24.785156 24.945312 -24.675781 24.96875 -24.5 C 25 -24.332031 25.03125 -24.148438 25.0625 -23.953125 C 25.101562 -23.765625 25.132812 -23.582031 25.15625 -23.40625 C 25.1875 -23.238281 25.210938 -23.132812 25.234375 -23.09375 C 25.234375 -23.039062 25.273438 -22.910156 25.359375 -22.703125 C 25.441406 -22.503906 25.484375 -22.378906 25.484375 -22.328125 C 25.484375 -22.304688 25.472656 -22.234375 25.453125 -22.109375 C 25.429688 -21.984375 25.398438 -21.847656 25.359375 -21.703125 C 25.328125 -21.554688 25.296875 -21.421875 25.265625 -21.296875 C 25.242188 -21.179688 25.234375 -21.113281 25.234375 -21.09375 C 25.109375 -20.457031 25.046875 -19.820312 25.046875 -19.1875 C 25.046875 -18.5625 25 -17.9375 24.90625 -17.3125 C 24.90625 -17.257812 24.859375 -17.160156 24.765625 -17.015625 C 24.710938 -16.941406 24.675781 -16.867188 24.65625 -16.796875 C 24.382812 -16.023438 24.171875 -15.328125 24.015625 -14.703125 C 23.859375 -14.085938 23.644531 -13.359375 23.375 -12.515625 C 23.375 -12.460938 23.363281 -12.394531 23.34375 -12.3125 C 23.320312 -12.226562 23.296875 -12.148438 23.265625 -12.078125 L 23.203125 -11.78125 C 23.171875 -11.726562 23.125 -11.65625 23.0625 -11.5625 C 23.007812 -11.46875 22.957031 -11.363281 22.90625 -11.25 C 22.851562 -11.144531 22.800781 -11.039062 22.75 -10.9375 C 22.707031 -10.84375 22.6875 -10.785156 22.6875 -10.765625 C 22.664062 -10.691406 22.625 -10.515625 22.5625 -10.234375 C 22.5 -9.953125 22.445312 -9.789062 22.40625 -9.75 C 22.351562 -9.675781 22.25 -9.550781 22.09375 -9.375 C 21.9375 -9.207031 21.753906 -9.023438 21.546875 -8.828125 C 21.335938 -8.640625 21.144531 -8.457031 20.96875 -8.28125 C 20.800781 -8.113281 20.707031 -7.992188 20.6875 -7.921875 C 20.632812 -7.921875 20.535156 -7.816406 20.390625 -7.609375 C 20.253906 -7.410156 20.171875 -7.285156 20.140625 -7.234375 C 20.066406 -7.160156 19.910156 -6.992188 19.671875 -6.734375 C 19.429688 -6.484375 19.164062 -6.21875 18.875 -5.9375 C 18.582031 -5.664062 18.3125 -5.414062 18.0625 -5.1875 C 17.820312 -4.957031 17.664062 -4.804688 17.59375 -4.734375 C 17.59375 -4.679688 17.523438 -4.546875 17.390625 -4.328125 C 17.265625 -4.109375 17.164062 -3.960938 17.09375 -3.890625 C 16.78125 -3.546875 16.484375 -3.234375 16.203125 -2.953125 C 15.921875 -2.679688 15.632812 -2.421875 15.34375 -2.171875 C 15.050781 -1.929688 14.738281 -1.679688 14.40625 -1.421875 C 14.082031 -1.171875 13.726562 -0.90625 13.34375 -0.625 C 13 -0.40625 12.609375 -0.265625 12.171875 -0.203125 C 11.742188 -0.140625 11.3125 -0.109375 10.875 -0.109375 L 7.5625 -0.109375 C 7.320312 -0.234375 6.992188 -0.425781 6.578125 -0.6875 C 6.171875 -0.957031 5.753906 -1.253906 5.328125 -1.578125 C 4.898438 -1.910156 4.515625 -2.238281 4.171875 -2.5625 C 3.835938 -2.882812 3.625 -3.179688 3.53125 -3.453125 C 3.5 -3.472656 3.472656 -3.550781 3.453125 -3.6875 C 3.429688 -3.820312 3.40625 -3.976562 3.375 -4.15625 C 3.351562 -4.34375 3.328125 -4.515625 3.296875 -4.671875 C 3.273438 -4.828125 3.265625 -4.929688 3.265625 -4.984375 C 3.046875 -6.003906 2.863281 -7.019531 2.71875 -8.03125 C 2.582031 -9.050781 2.515625 -10.082031 2.515625 -11.125 Z M 2.515625 -11.125 "/></g></g></g><g fill="#ff3131" fill-opacity="1"><g transform="translate(105.318061, 258.914586)"><g><path d="M 3.96875 -3.453125 L 3.96875 -3.59375 C 3.96875 -3.625 3.976562 -3.6875 4 -3.78125 C 4.019531 -3.875 4.046875 -3.972656 4.078125 -4.078125 C 4.117188 -4.191406 4.148438 -4.289062 4.171875 -4.375 C 4.203125 -4.46875 4.21875 -4.523438 4.21875 -4.546875 C 4.21875 -4.597656 4.222656 -4.71875 4.234375 -4.90625 C 4.242188 -5.101562 4.25 -5.3125 4.25 -5.53125 C 4.25 -5.75 4.242188 -5.953125 4.234375 -6.140625 C 4.222656 -6.335938 4.21875 -6.5 4.21875 -6.625 C 4.53125 -6.863281 4.742188 -7.117188 4.859375 -7.390625 C 4.984375 -7.671875 5.070312 -7.960938 5.125 -8.265625 C 5.175781 -8.578125 5.210938 -8.890625 5.234375 -9.203125 C 5.253906 -9.515625 5.328125 -9.828125 5.453125 -10.140625 C 5.835938 -11.015625 6.175781 -11.890625 6.46875 -12.765625 C 6.757812 -13.640625 7.097656 -14.523438 7.484375 -15.421875 C 7.484375 -15.441406 7.519531 -15.519531 7.59375 -15.65625 C 7.664062 -15.789062 7.75 -15.929688 7.84375 -16.078125 C 7.945312 -16.222656 8.039062 -16.351562 8.125 -16.46875 C 8.207031 -16.59375 8.265625 -16.65625 8.296875 -16.65625 C 8.441406 -17.019531 8.519531 -17.332031 8.53125 -17.59375 C 8.539062 -17.863281 8.554688 -18.117188 8.578125 -18.359375 C 8.609375 -18.597656 8.679688 -18.835938 8.796875 -19.078125 C 8.921875 -19.328125 9.175781 -19.609375 9.5625 -19.921875 L 9.5625 -20.828125 C 9.5625 -21.003906 9.546875 -21.226562 9.515625 -21.5 C 9.492188 -21.78125 9.445312 -22.046875 9.375 -22.296875 C 9.300781 -22.554688 9.191406 -22.78125 9.046875 -22.96875 C 8.898438 -23.164062 8.707031 -23.265625 8.46875 -23.265625 L 8.296875 -23.265625 C 7.734375 -23.078125 7.238281 -22.894531 6.8125 -22.71875 C 6.394531 -22.550781 5.878906 -22.46875 5.265625 -22.46875 L 4.984375 -22.46875 C 4.859375 -22.46875 4.726562 -22.476562 4.59375 -22.5 C 4.46875 -22.53125 4.34375 -22.601562 4.21875 -22.71875 C 4.21875 -22.769531 4.203125 -22.867188 4.171875 -23.015625 C 4.148438 -23.160156 4.117188 -23.316406 4.078125 -23.484375 C 4.046875 -23.660156 4.019531 -23.820312 4 -23.96875 C 3.976562 -24.113281 3.96875 -24.222656 3.96875 -24.296875 L 3.96875 -24.546875 C 3.96875 -25.054688 4.132812 -25.597656 4.46875 -26.171875 C 4.8125 -26.753906 5.210938 -27.335938 5.671875 -27.921875 C 6.128906 -28.503906 6.609375 -29.050781 7.109375 -29.5625 C 7.609375 -30.070312 8.003906 -30.492188 8.296875 -30.828125 C 8.296875 -30.859375 8.359375 -30.984375 8.484375 -31.203125 C 8.617188 -31.421875 8.703125 -31.539062 8.734375 -31.5625 C 9.359375 -32.113281 10.035156 -32.546875 10.765625 -32.859375 C 11.492188 -33.179688 12.269531 -33.34375 13.09375 -33.34375 C 13.351562 -33.34375 13.585938 -33.328125 13.796875 -33.296875 C 14.003906 -33.273438 14.265625 -33.207031 14.578125 -33.09375 C 14.671875 -33.0625 14.796875 -33.007812 14.953125 -32.9375 C 15.117188 -32.863281 15.28125 -32.785156 15.4375 -32.703125 C 15.59375 -32.617188 15.722656 -32.539062 15.828125 -32.46875 C 15.941406 -32.394531 16.007812 -32.347656 16.03125 -32.328125 C 16.0625 -32.304688 16.09375 -32.234375 16.125 -32.109375 C 16.164062 -31.984375 16.195312 -31.84375 16.21875 -31.6875 C 16.238281 -31.53125 16.253906 -31.375 16.265625 -31.21875 C 16.285156 -31.0625 16.296875 -30.929688 16.296875 -30.828125 L 16.296875 -27.484375 C 16.296875 -27.441406 16.335938 -27.296875 16.421875 -27.046875 C 16.503906 -26.804688 16.546875 -26.640625 16.546875 -26.546875 C 16.597656 -26.492188 16.648438 -26.40625 16.703125 -26.28125 C 16.765625 -26.164062 16.804688 -26.082031 16.828125 -26.03125 L 17.09375 -26.03125 C 17.5 -26.25 17.851562 -26.460938 18.15625 -26.671875 C 18.46875 -26.878906 18.789062 -27.148438 19.125 -27.484375 C 19.125 -27.535156 19.191406 -27.675781 19.328125 -27.90625 C 19.460938 -28.132812 19.566406 -28.265625 19.640625 -28.296875 C 19.785156 -28.484375 19.972656 -28.648438 20.203125 -28.796875 C 20.429688 -28.941406 20.65625 -29.113281 20.875 -29.3125 C 21.1875 -29.570312 21.570312 -29.890625 22.03125 -30.265625 C 22.488281 -30.640625 22.851562 -31.007812 23.125 -31.375 C 23.320312 -31.59375 23.472656 -31.804688 23.578125 -32.015625 C 23.691406 -32.222656 23.878906 -32.4375 24.140625 -32.65625 C 24.554688 -32.914062 25.0625 -33.148438 25.65625 -33.359375 C 26.25 -33.566406 26.800781 -33.671875 27.3125 -33.671875 C 27.625 -33.671875 27.90625 -33.570312 28.15625 -33.375 C 28.414062 -33.1875 28.675781 -33.003906 28.9375 -32.828125 C 29.257812 -32.640625 29.566406 -32.453125 29.859375 -32.265625 C 30.148438 -32.085938 30.414062 -31.882812 30.65625 -31.65625 C 30.894531 -31.425781 31.085938 -31.164062 31.234375 -30.875 C 31.378906 -30.582031 31.453125 -30.226562 31.453125 -29.8125 C 31.453125 -29.425781 31.382812 -28.992188 31.25 -28.515625 C 31.113281 -28.046875 30.910156 -27.609375 30.640625 -27.203125 C 30.378906 -26.804688 30.0625 -26.46875 29.6875 -26.1875 C 29.3125 -25.914062 28.894531 -25.78125 28.4375 -25.78125 C 28.070312 -25.78125 27.738281 -25.898438 27.4375 -26.140625 C 27.132812 -26.378906 26.84375 -26.640625 26.5625 -26.921875 C 26.28125 -27.203125 25.992188 -27.460938 25.703125 -27.703125 C 25.410156 -27.953125 25.097656 -28.078125 24.765625 -28.078125 C 24.492188 -28.078125 24.203125 -27.992188 23.890625 -27.828125 C 23.578125 -27.671875 23.320312 -27.5 23.125 -27.3125 C 23.03125 -27.238281 22.859375 -27.078125 22.609375 -26.828125 C 22.367188 -26.585938 22.113281 -26.332031 21.84375 -26.0625 C 21.582031 -25.800781 21.328125 -25.546875 21.078125 -25.296875 C 20.835938 -25.054688 20.679688 -24.890625 20.609375 -24.796875 C 20.472656 -24.242188 20.296875 -23.804688 20.078125 -23.484375 C 19.859375 -23.171875 19.613281 -22.894531 19.34375 -22.65625 C 19.070312 -22.414062 18.785156 -22.175781 18.484375 -21.9375 C 18.179688 -21.707031 17.875 -21.398438 17.5625 -21.015625 C 17.5625 -20.941406 17.519531 -20.847656 17.4375 -20.734375 C 17.351562 -20.628906 17.3125 -20.554688 17.3125 -20.515625 C 17.28125 -20.441406 17.238281 -20.265625 17.1875 -19.984375 C 17.144531 -19.703125 17.09375 -19.40625 17.03125 -19.09375 C 16.96875 -18.78125 16.914062 -18.484375 16.875 -18.203125 C 16.84375 -17.921875 16.828125 -17.742188 16.828125 -17.671875 C 16.804688 -17.617188 16.765625 -17.5 16.703125 -17.3125 C 16.648438 -17.132812 16.597656 -17.023438 16.546875 -16.984375 C 16.523438 -16.929688 16.460938 -16.828125 16.359375 -16.671875 C 16.265625 -16.515625 16.160156 -16.34375 16.046875 -16.15625 C 15.941406 -15.976562 15.847656 -15.816406 15.765625 -15.671875 C 15.679688 -15.523438 15.625 -15.441406 15.59375 -15.421875 C 15.519531 -15.347656 15.445312 -15.25 15.375 -15.125 C 15.300781 -15 15.222656 -14.867188 15.140625 -14.734375 C 15.054688 -14.609375 14.976562 -14.484375 14.90625 -14.359375 C 14.832031 -14.242188 14.785156 -14.171875 14.765625 -14.140625 C 14.671875 -13.972656 14.570312 -13.742188 14.46875 -13.453125 C 14.375 -13.160156 14.269531 -12.859375 14.15625 -12.546875 C 14.050781 -12.234375 13.929688 -11.941406 13.796875 -11.671875 C 13.660156 -11.398438 13.507812 -11.21875 13.34375 -11.125 C 13.34375 -11.050781 13.328125 -10.914062 13.296875 -10.71875 C 13.273438 -10.53125 13.242188 -10.332031 13.203125 -10.125 C 13.171875 -9.914062 13.144531 -9.710938 13.125 -9.515625 C 13.101562 -9.328125 13.09375 -9.195312 13.09375 -9.125 C 13.039062 -9.070312 12.941406 -8.90625 12.796875 -8.625 C 12.648438 -8.351562 12.554688 -8.179688 12.515625 -8.109375 C 12.242188 -7.546875 12.03125 -6.957031 11.875 -6.34375 C 11.71875 -5.726562 11.515625 -5.128906 11.265625 -4.546875 C 11.242188 -4.523438 11.195312 -4.457031 11.125 -4.34375 C 11.050781 -4.238281 10.96875 -4.113281 10.875 -3.96875 C 10.78125 -3.820312 10.695312 -3.679688 10.625 -3.546875 C 10.550781 -3.410156 10.515625 -3.316406 10.515625 -3.265625 C 10.410156 -3.097656 10.257812 -2.8125 10.0625 -2.40625 C 9.875 -2.007812 9.707031 -1.726562 9.5625 -1.5625 C 9.507812 -1.5625 9.382812 -1.488281 9.1875 -1.34375 C 9 -1.195312 8.785156 -1.023438 8.546875 -0.828125 C 8.304688 -0.640625 8.0625 -0.441406 7.8125 -0.234375 C 7.570312 -0.0234375 7.378906 0.132812 7.234375 0.25 C 6.972656 0.445312 6.804688 0.566406 6.734375 0.609375 C 6.660156 0.660156 6.488281 0.6875 6.21875 0.6875 C 5.832031 0.6875 5.5 0.539062 5.21875 0.25 C 4.9375 -0.0390625 4.664062 -0.316406 4.40625 -0.578125 C 4.40625 -0.609375 4.375 -0.675781 4.3125 -0.78125 C 4.25 -0.894531 4.21875 -0.972656 4.21875 -1.015625 C 4.21875 -1.066406 4.203125 -1.1875 4.171875 -1.375 C 4.148438 -1.570312 4.128906 -1.785156 4.109375 -2.015625 C 4.085938 -2.242188 4.0625 -2.476562 4.03125 -2.71875 C 4.007812 -2.96875 3.988281 -3.148438 3.96875 -3.265625 Z M 3.96875 -3.453125 "/></g></g></g></svg>